<svg id="svg" version="1.1" xmlns="http://www.w3.org/2000/svg" xmlns:xlink="http://www.w3.org/1999/xlink" width="400" height="400" viewBox="0, 0, 400,400"><g id="svgg"><path id="path0" d="M212.794 57.100 C 212.791 64.965,212.656 71.601,212.494 71.846 C 211.878 72.780,210.466 72.866,209.620 72.020 L 208.800 71.200 137.800 71.200 L 66.800 71.200 66.800 160.200 L 66.800 249.200 99.500 249.240 C 216.990 249.383,210.009 249.324,210.632 250.176 C 210.945 250.604,211.200 250.806,211.200 250.627 C 211.200 250.448,211.468 250.524,211.796 250.796 C 212.123 251.068,212.293 251.450,212.172 251.645 C 212.051 251.840,212.143 252.000,212.376 252.000 C 212.667 252.000,212.800 256.650,212.800 266.800 L 212.800 281.600 249.953 281.600 L 287.107 281.600 287.253 280.700 C 287.334 280.205,287.353 262.475,287.296 241.300 L 287.192 202.800 250.010 202.800 L 212.829 202.800 212.714 217.180 C 212.626 228.324,212.483 231.678,212.080 232.080 C 211.390 232.770,84.600 233.064,83.773 232.377 C 83.101 231.820,83.164 229.660,83.864 229.268 C 84.458 228.936,84.467 95.642,83.872 93.600 C 83.261 91.500,79.733 91.610,148.019 91.595 C 207.806 91.582,211.828 91.624,212.299 92.267 C 212.678 92.787,212.800 96.426,212.800 107.276 L 212.800 121.600 250.000 121.600 L 287.200 121.600 287.200 82.200 L 287.200 42.800 250.000 42.800 L 212.800 42.800 212.794 57.100 M232.400 64.000 C 233.174 64.774,233.733 64.800,249.400 64.800 L 265.600 64.800 265.600 81.224 C 265.600 92.071,265.736 97.563,266.000 97.400 C 266.593 97.034,266.493 99.492,265.900 99.876 C 265.625 100.054,258.020 100.230,249.000 100.266 C 239.980 100.302,232.077 100.464,231.437 100.625 C 229.200 101.188,229.199 101.184,229.206 82.024 C 229.212 64.670,229.260 63.925,230.400 63.492 C 231.383 63.118,231.563 63.163,232.400 64.000 M112.678 117.855 C 112.537 117.996,112.415 135.906,112.406 157.655 L 112.389 197.200 149.780 197.200 L 187.170 197.200 187.285 183.211 C 187.395 169.785,187.433 169.189,188.209 168.413 C 189.375 167.247,311.446 167.106,312.299 168.269 C 312.827 168.989,312.880 307.653,312.353 308.180 C 311.901 308.633,188.653 308.894,188.000 308.444 C 187.489 308.091,187.383 305.867,187.286 293.415 L 187.172 278.800 149.805 278.800 L 112.438 278.800 112.460 318.000 L 112.482 357.200 149.841 357.200 L 187.200 357.200 187.200 342.829 C 187.200 326.968,187.234 326.747,189.563 327.439 C 190.133 327.608,196.626 327.808,203.991 327.884 C 211.944 327.965,217.539 328.179,217.771 328.411 C 218.019 328.659,238.212 328.800,273.680 328.800 L 329.200 328.800 329.200 239.800 L 329.200 150.800 259.300 150.787 C 204.983 150.777,189.259 150.666,188.765 150.287 C 187.268 149.138,187.200 148.379,187.200 132.826 L 187.200 117.600 150.067 117.600 C 129.643 117.600,112.818 117.715,112.678 117.855 M168.253 139.703 C 168.444 139.976,168.503 148.202,168.385 158.000 L 168.169 175.800 168.007 159.200 C 167.919 150.070,167.790 143.680,167.723 145.000 C 167.655 146.320,167.555 154.150,167.500 162.400 L 167.400 177.400 151.467 177.505 C 135.017 177.613,132.488 177.406,131.513 175.873 C 130.671 174.548,131.173 141.081,132.049 140.148 L 132.898 139.244 150.402 139.225 C 163.918 139.210,167.986 139.319,168.253 139.703 M232.677 224.256 C 232.848 224.703,235.813 224.800,249.243 224.800 C 262.035 224.800,265.611 224.909,265.650 225.300 C 265.678 225.575,265.723 232.766,265.750 241.279 C 265.788 253.073,265.919 256.877,266.300 257.259 C 267.077 258.038,266.913 259.911,266.026 260.386 C 265.133 260.864,231.269 260.967,230.560 260.494 C 229.351 259.687,229.249 258.263,229.213 241.684 C 229.178 225.461,229.206 224.794,229.959 224.041 C 230.809 223.191,232.314 223.310,232.677 224.256 M167.940 300.430 C 168.730 301.166,168.750 301.304,168.195 302.152 C 167.677 302.942,167.606 305.257,167.700 318.237 L 167.810 333.400 167.992 318.000 L 168.174 302.600 168.387 318.800 C 168.504 327.710,168.482 335.090,168.338 335.200 C 168.194 335.310,160.634 335.379,151.539 335.353 C 135.819 335.309,134.975 335.344,134.478 336.053 C 133.754 337.087,132.244 337.003,131.651 335.895 C 130.935 334.557,131.185 301.181,131.918 300.298 C 132.826 299.205,166.758 299.329,167.940 300.430 " stroke="none" fill="#344c8c" fill-rule="evenodd"></path><path id="path1" d="M209.295 55.300 L 209.400 71.400 210.400 71.400 L 211.400 71.400 211.502 57.200 C 211.594 44.418,211.671 42.950,212.278 42.500 C 213.161 41.846,286.409 41.763,287.626 42.414 C 288.842 43.065,288.842 121.335,287.626 121.986 C 286.409 122.637,213.161 122.554,212.278 121.900 C 211.671 121.450,211.594 119.970,211.502 107.000 L 211.400 92.600 148.221 92.499 C 84.006 92.396,84.090 92.394,84.587 93.960 L 84.854 94.800 147.027 94.800 L 209.200 94.800 209.200 109.800 L 209.200 124.800 249.950 124.800 L 290.700 124.800 290.950 123.550 C 291.272 121.940,291.279 40.671,290.957 39.833 C 290.738 39.261,286.753 39.200,249.953 39.200 L 209.191 39.200 209.295 55.300 M230.667 64.667 C 230.333 65.000,230.310 98.101,230.643 98.967 C 230.912 99.668,264.928 99.964,265.357 99.269 C 265.469 99.088,265.459 98.548,265.334 98.069 L 265.107 97.200 248.953 97.200 L 232.800 97.200 232.800 81.043 C 232.800 66.679,232.730 64.859,232.167 64.643 C 231.354 64.331,230.997 64.336,230.667 64.667 M63.200 162.000 L 63.200 252.800 136.200 252.800 L 209.200 252.800 209.200 268.000 C 209.200 282.667,209.228 283.228,210.000 284.000 C 210.789 284.789,211.333 284.800,250.019 284.800 L 289.238 284.800 290.221 283.740 L 291.204 282.679 291.102 241.040 L 291.000 199.400 250.100 199.298 L 209.200 199.196 209.200 214.198 L 209.200 229.200 146.808 229.200 L 84.415 229.200 84.163 230.205 C 83.574 232.551,79.272 232.400,146.875 232.400 C 190.507 232.400,209.092 232.272,209.660 231.968 C 211.434 231.018,211.600 229.640,211.600 215.827 C 211.600 203.385,211.633 202.810,212.374 202.414 C 213.448 201.839,286.552 201.839,287.626 202.414 C 288.584 202.927,288.873 281.367,287.920 282.320 C 287.411 282.829,213.544 283.060,212.233 282.557 C 211.672 282.342,211.600 280.647,211.600 267.580 C 211.600 253.802,211.553 252.811,210.874 252.323 C 210.474 252.035,210.030 251.485,209.886 251.100 C 209.639 250.437,205.860 250.400,138.255 250.400 C 73.544 250.400,66.863 250.341,66.643 249.767 C 66.509 249.419,66.400 209.099,66.400 160.167 L 66.400 71.200 64.800 71.200 L 63.200 71.200 63.200 162.000 M110.111 116.100 C 109.899 116.375,109.624 116.780,109.500 117.000 C 109.352 117.265,122.481 117.400,148.538 117.400 L 187.800 117.400 188.000 132.723 L 188.200 148.046 189.200 148.814 C 190.177 149.565,191.789 149.582,259.686 149.591 C 327.971 149.600,329.179 149.613,329.586 150.374 C 329.868 150.900,330.000 179.508,330.000 239.974 L 330.000 328.800 331.400 328.800 L 332.800 328.800 332.800 238.000 L 332.800 147.200 261.800 147.200 L 190.800 147.200 190.797 132.300 L 190.795 117.400 189.473 116.500 L 188.150 115.600 149.324 115.600 C 118.736 115.600,110.416 115.706,110.111 116.100 M133.707 140.485 C 132.403 141.114,132.358 141.804,132.485 159.400 L 132.600 175.400 133.600 175.400 L 134.600 175.400 134.704 159.100 L 134.809 142.800 151.140 142.800 L 167.472 142.800 167.924 141.808 C 168.307 140.966,168.260 140.753,167.614 140.408 C 166.544 139.835,134.905 139.907,133.707 140.485 M188.978 168.966 C 188.240 169.505,188.189 170.264,187.982 183.667 C 187.863 191.440,187.728 197.845,187.682 197.900 C 187.637 197.955,169.960 198.000,148.400 198.000 L 109.200 198.000 109.200 199.400 L 109.200 200.800 150.000 200.800 L 190.800 200.800 190.800 185.800 L 190.800 170.800 250.000 170.800 L 309.200 170.800 309.200 238.000 L 309.200 305.200 250.005 305.200 L 190.810 305.200 190.705 290.300 L 190.600 275.400 149.900 275.298 L 109.200 275.196 109.200 276.498 L 109.200 277.800 148.054 277.696 C 176.532 277.620,187.054 277.713,187.454 278.045 C 187.897 278.412,188.000 281.211,188.000 292.825 C 188.000 301.495,188.151 307.246,188.382 307.389 C 188.779 307.634,311.232 307.702,311.477 307.457 C 311.553 307.380,311.614 276.106,311.613 237.959 L 311.609 168.600 250.683 168.499 C 198.542 168.412,189.644 168.479,188.978 168.966 M230.585 224.894 C 229.881 226.728,230.618 258.878,231.376 259.433 C 232.273 260.088,264.538 260.281,265.554 259.637 C 265.921 259.404,266.020 258.933,265.847 258.243 L 265.585 257.200 249.197 257.200 L 232.809 257.200 232.704 240.900 L 232.600 224.600 231.698 224.472 C 231.201 224.401,230.702 224.591,230.585 224.894 M133.071 300.900 C 132.445 301.360,132.398 302.773,132.495 318.400 L 132.600 335.400 133.600 335.400 L 134.600 335.400 134.704 319.100 L 134.809 302.800 150.978 302.800 C 168.267 302.800,168.610 302.758,167.402 300.804 C 167.008 300.166,133.945 300.259,133.071 300.900 M188.480 328.480 C 188.125 328.835,188.000 332.613,188.000 343.000 C 188.000 353.387,187.875 357.165,187.520 357.520 C 187.153 357.887,177.858 358.000,148.120 358.000 L 109.200 358.000 109.200 359.400 L 109.200 360.800 150.000 360.800 L 190.800 360.800 190.800 344.643 C 190.800 330.279,190.730 328.459,190.167 328.243 C 189.274 327.900,189.025 327.935,188.480 328.480 " stroke="none" fill="#243c6c" fill-rule="evenodd"></path><path id="path2" d="M212.562 49.000 C 212.562 52.520,212.624 53.906,212.698 52.081 C 212.772 50.256,212.772 47.376,212.697 45.681 C 212.622 43.986,212.561 45.480,212.562 49.000 M212.557 64.000 C 212.557 66.970,212.620 68.185,212.697 66.700 C 212.774 65.215,212.774 62.785,212.697 61.300 C 212.620 59.815,212.557 61.030,212.557 64.000 M265.383 81.000 C 265.383 90.020,265.435 93.767,265.499 89.327 C 265.564 84.887,265.564 77.507,265.500 72.927 C 265.435 68.347,265.383 71.980,265.383 81.000 M212.559 99.600 C 212.559 102.790,212.621 104.095,212.697 102.500 C 212.773 100.905,212.773 98.295,212.697 96.700 C 212.621 95.105,212.559 96.410,212.559 99.600 M84.595 162.000 C 84.595 199.070,84.642 214.235,84.700 195.700 C 84.757 177.165,84.757 146.835,84.700 128.300 C 84.642 109.765,84.595 124.930,84.595 162.000 M212.493 112.000 C 212.493 112.770,212.575 113.085,212.676 112.700 C 212.776 112.315,212.776 111.685,212.676 111.300 C 212.575 110.915,212.493 111.230,212.493 112.000 M212.514 118.600 C 212.517 119.700,212.595 120.103,212.687 119.495 C 212.779 118.886,212.777 117.986,212.682 117.495 C 212.587 117.003,212.511 117.500,212.514 118.600 M109.467 117.467 C 109.320 117.613,109.200 135.793,109.200 157.867 L 109.200 198.000 110.100 197.960 C 112.858 197.838,112.600 202.034,112.600 157.300 L 112.600 117.200 111.167 117.200 C 110.378 117.200,109.613 117.320,109.467 117.467 M168.183 159.000 C 168.183 168.240,168.236 171.963,168.300 167.273 C 168.364 162.583,168.364 155.023,168.299 150.473 C 168.235 145.923,168.183 149.760,168.183 159.000 M188.262 168.331 C 187.898 168.734,187.600 169.218,187.600 169.407 C 187.600 169.596,187.961 169.363,188.403 168.889 C 188.844 168.415,189.456 168.123,189.762 168.241 C 190.069 168.358,190.438 168.262,190.583 168.027 C 191.044 167.282,188.965 167.555,188.262 168.331 M134.373 176.051 C 133.592 177.511,134.425 177.588,151.076 177.594 C 167.588 177.600,167.898 177.570,167.399 175.996 C 166.988 174.701,135.067 174.754,134.373 176.051 M212.557 208.000 C 212.557 210.970,212.620 212.185,212.697 210.700 C 212.774 209.215,212.774 206.785,212.697 205.300 C 212.620 203.815,212.557 205.030,212.557 208.000 M212.524 219.000 C 212.526 220.320,212.601 220.812,212.690 220.093 C 212.779 219.374,212.777 218.294,212.686 217.693 C 212.595 217.092,212.522 217.680,212.524 219.000 M212.172 230.355 C 212.292 230.550,212.060 230.796,211.656 230.901 C 211.252 231.007,210.827 231.455,210.711 231.896 C 210.399 233.090,211.956 232.567,212.431 231.319 C 212.897 230.093,212.893 230.000,212.376 230.000 C 212.143 230.000,212.051 230.160,212.172 230.355 M265.357 236.000 C 265.357 238.970,265.420 240.185,265.497 238.700 C 265.574 237.215,265.574 234.785,265.497 233.300 C 265.420 231.815,265.357 233.030,265.357 236.000 M265.357 250.000 C 265.357 252.970,265.420 254.185,265.497 252.700 C 265.574 251.215,265.574 248.785,265.497 247.300 C 265.420 245.815,265.357 247.030,265.357 250.000 M211.063 250.670 C 210.918 250.815,210.800 251.064,210.800 251.224 C 210.800 251.672,211.948 252.008,212.183 251.628 C 212.448 251.199,211.416 250.317,211.063 250.670 M212.493 274.000 C 212.493 274.770,212.575 275.085,212.676 274.700 C 212.776 274.315,212.776 273.685,212.676 273.300 C 212.575 272.915,212.493 273.230,212.493 274.000 M109.298 317.900 L 109.400 357.800 110.729 357.738 C 111.460 357.704,112.151 357.582,112.266 357.467 C 112.798 356.936,112.601 278.409,112.067 278.204 C 111.774 278.092,111.008 278.000,110.365 278.000 L 109.196 278.000 109.298 317.900 M212.800 282.000 C 212.800 282.264,225.467 282.400,250.000 282.400 C 274.533 282.400,287.200 282.264,287.200 282.000 C 287.200 281.736,274.533 281.600,250.000 281.600 C 225.467 281.600,212.800 281.736,212.800 282.000 M168.087 317.876 C 168.032 327.533,167.853 333.244,167.600 333.400 C 167.123 333.695,167.066 335.070,167.519 335.350 C 168.493 335.952,168.589 334.138,168.387 318.800 L 168.174 302.600 168.087 317.876 M190.800 328.400 C 190.800 328.659,195.608 328.800,204.424 328.800 C 213.404 328.800,217.963 328.664,217.800 328.400 C 217.643 328.146,212.663 328.000,204.176 328.000 C 195.525 328.000,190.800 328.141,190.800 328.400 M138.305 335.483 C 138.802 335.579,139.522 335.575,139.905 335.475 C 140.287 335.375,139.880 335.296,139.000 335.301 C 138.120 335.305,137.807 335.387,138.305 335.483 M148.305 335.483 C 148.802 335.579,149.522 335.575,149.905 335.475 C 150.287 335.375,149.880 335.296,149.000 335.301 C 148.120 335.305,147.807 335.387,148.305 335.483 M156.305 335.483 C 156.802 335.579,157.522 335.575,157.905 335.475 C 158.287 335.375,157.880 335.296,157.000 335.301 C 156.120 335.305,155.807 335.387,156.305 335.483 M164.305 335.483 C 164.802 335.579,165.522 335.575,165.905 335.475 C 166.287 335.375,165.880 335.296,165.000 335.301 C 164.120 335.305,163.807 335.387,164.305 335.483 " stroke="none" fill="#2c4c8c" fill-rule="evenodd"></path><path id="path3" d="M212.278 42.500 C 211.671 42.950,211.594 44.418,211.502 57.200 L 211.400 71.400 210.300 71.384 C 208.967 71.365,208.882 71.735,210.100 72.260 C 211.296 72.776,212.391 72.500,212.440 71.671 C 212.462 71.302,212.463 64.655,212.442 56.900 L 212.404 42.800 249.802 42.800 L 287.200 42.800 287.200 82.200 L 287.200 121.600 250.000 121.600 C 220.530 121.600,212.791 121.496,212.756 121.100 C 212.732 120.825,212.661 114.238,212.597 106.461 C 212.532 98.424,212.322 92.162,212.110 91.950 C 211.606 91.446,217.072 91.480,146.927 91.543 C 76.970 91.606,82.966 91.373,83.800 94.000 C 84.173 95.176,84.763 94.974,84.675 93.700 L 84.600 92.600 148.000 92.600 L 211.400 92.600 211.502 107.000 C 211.594 119.970,211.671 121.450,212.278 121.900 C 213.161 122.554,286.409 122.637,287.626 121.986 C 288.842 121.335,288.842 43.065,287.626 42.414 C 286.409 41.763,213.161 41.846,212.278 42.500 M230.400 63.492 C 229.260 63.925,229.212 64.670,229.206 82.024 C 229.199 101.183,229.200 101.186,231.437 100.626 C 232.077 100.466,239.980 100.305,249.000 100.267 C 258.020 100.230,265.622 100.056,265.894 99.880 C 266.529 99.469,266.388 97.681,265.700 97.417 C 265.328 97.274,265.206 97.537,265.286 98.307 L 265.400 99.400 248.109 99.504 L 230.817 99.608 230.598 98.704 C 230.477 98.207,230.428 90.330,230.489 81.200 L 230.600 64.600 231.700 64.675 C 232.976 64.763,233.145 64.213,232.026 63.614 C 231.601 63.386,231.196 63.214,231.126 63.232 C 231.057 63.249,230.730 63.366,230.400 63.492 M66.499 160.067 C 66.445 209.054,66.509 249.419,66.643 249.767 C 66.863 250.341,73.544 250.400,138.255 250.400 C 205.860 250.400,209.639 250.437,209.886 251.100 C 210.030 251.485,210.474 252.035,210.874 252.323 C 211.553 252.811,211.600 253.802,211.600 267.580 C 211.600 280.647,211.672 282.342,212.233 282.557 C 213.544 283.060,287.411 282.829,287.920 282.320 C 288.873 281.367,288.584 202.927,287.626 202.414 C 286.552 201.839,213.448 201.839,212.374 202.414 C 211.633 202.810,211.600 203.385,211.600 215.827 C 211.600 229.640,211.434 231.018,209.660 231.968 C 209.092 232.272,190.507 232.400,146.875 232.400 C 79.153 232.400,83.573 232.557,84.173 230.166 C 84.362 229.413,84.292 229.169,83.924 229.292 C 83.275 229.508,83.096 231.593,83.667 232.280 C 84.017 232.703,95.950 232.800,147.259 232.800 L 210.420 232.800 210.800 231.800 C 211.009 231.250,211.465 230.800,211.814 230.800 C 212.162 230.800,212.336 230.620,212.200 230.400 C 212.064 230.180,212.188 229.997,212.476 229.994 C 212.857 229.989,212.836 229.882,212.400 229.600 C 211.989 229.335,211.960 229.210,212.307 229.206 C 212.710 229.201,212.765 226.512,212.576 216.000 L 212.339 202.800 249.769 202.800 L 287.200 202.800 287.261 241.100 C 287.324 281.011,287.324 280.568,287.248 281.700 C 287.203 282.361,285.144 282.400,250.000 282.400 L 212.800 282.400 212.756 281.500 C 212.732 281.005,212.735 274.660,212.762 267.400 C 212.815 253.148,212.740 252.162,211.572 251.791 C 211.147 251.656,210.800 251.209,210.800 250.797 C 210.800 250.384,210.575 249.902,210.300 249.724 C 209.841 249.427,193.100 249.354,99.501 249.240 L 66.802 249.200 66.700 160.100 L 66.598 71.000 66.499 160.067 M149.900 117.499 L 187.200 117.604 187.200 132.828 C 187.200 148.379,187.268 149.138,188.765 150.287 C 189.259 150.666,204.983 150.777,259.300 150.787 L 329.200 150.800 329.246 238.900 C 329.271 287.355,329.263 327.299,329.227 327.665 C 329.191 328.030,329.350 328.446,329.581 328.588 C 330.165 328.949,330.170 151.466,329.586 150.374 C 329.179 149.613,327.971 149.600,259.686 149.591 C 191.789 149.582,190.177 149.565,189.200 148.814 L 188.200 148.046 188.000 132.723 L 187.800 117.400 150.200 117.397 L 112.600 117.394 149.900 117.499 M132.049 140.148 C 130.899 141.372,130.693 175.036,131.829 176.171 C 132.666 177.009,133.882 176.968,134.354 176.087 C 134.676 175.484,134.570 175.376,133.668 175.387 L 132.600 175.400 132.485 159.400 C 132.356 141.504,132.384 141.118,133.825 140.461 C 135.166 139.851,166.494 139.808,167.629 140.415 C 168.350 140.802,168.362 140.913,167.798 142.004 C 167.279 143.007,167.207 145.520,167.300 159.289 L 167.409 175.400 167.505 159.087 C 167.587 145.016,167.682 142.743,168.200 142.545 C 168.947 142.258,168.990 140.256,168.263 139.652 C 167.885 139.339,162.554 139.212,150.312 139.225 L 132.898 139.244 132.049 140.148 M310.294 167.440 C 310.159 167.574,283.278 167.673,250.558 167.660 C 217.838 167.646,190.872 167.762,190.634 167.917 C 190.395 168.073,217.517 168.290,250.905 168.400 L 311.609 168.600 311.613 237.959 C 311.614 276.106,311.553 307.380,311.477 307.457 C 311.232 307.702,188.779 307.634,188.382 307.389 C 188.151 307.246,188.000 301.506,188.000 292.856 C 188.000 282.270,187.875 278.435,187.520 278.080 C 187.153 277.713,177.932 277.611,148.220 277.646 C 119.837 277.680,109.830 277.807,111.000 278.120 C 112.065 278.405,125.066 278.592,149.886 278.678 L 187.172 278.808 187.286 293.419 C 187.383 305.867,187.489 308.091,188.000 308.444 C 188.653 308.894,311.901 308.633,312.353 308.180 C 312.724 307.809,312.857 170.931,312.488 169.507 C 312.173 168.290,310.767 166.966,310.294 167.440 M188.240 169.070 L 187.200 170.192 187.200 183.696 L 187.200 197.200 150.100 197.240 C 129.695 197.262,112.550 197.424,112.000 197.600 C 111.450 197.776,128.235 197.938,149.300 197.960 C 170.365 197.982,187.637 197.955,187.682 197.900 C 187.728 197.845,187.863 191.440,187.982 183.667 C 188.188 170.311,188.242 169.504,188.971 168.971 C 189.395 168.662,189.638 168.305,189.511 168.178 C 189.385 168.051,188.813 168.453,188.240 169.070 M229.979 224.021 C 229.200 224.800,229.178 225.316,229.213 241.684 C 229.249 258.263,229.351 259.687,230.560 260.494 C 231.269 260.967,265.133 260.864,266.026 260.386 C 267.040 259.843,266.679 256.546,265.474 255.341 C 265.031 254.898,265.160 256.432,265.688 257.893 C 266.096 259.021,266.080 259.305,265.588 259.616 C 264.542 260.277,232.296 260.104,231.376 259.432 C 230.629 258.886,230.600 258.230,230.600 241.732 L 230.600 224.600 231.705 224.616 C 232.985 224.635,232.965 224.027,231.670 223.548 C 231.010 223.304,230.575 223.425,229.979 224.021 M265.200 228.000 C 265.200 229.796,265.348 230.756,265.600 230.600 C 265.820 230.464,266.000 229.294,266.000 228.000 C 266.000 226.706,265.820 225.536,265.600 225.400 C 265.348 225.244,265.200 226.204,265.200 228.000 M265.200 243.000 C 265.200 244.130,265.355 244.751,265.600 244.600 C 265.820 244.464,266.000 243.744,266.000 243.000 C 266.000 242.256,265.820 241.536,265.600 241.400 C 265.355 241.249,265.200 241.870,265.200 243.000 M131.918 300.298 C 131.185 301.181,130.934 334.556,131.651 335.895 C 132.176 336.876,133.546 337.094,134.320 336.320 C 135.051 335.589,134.905 335.367,133.700 335.384 L 132.600 335.400 132.496 318.316 C 132.394 301.687,132.412 301.222,133.178 300.812 C 133.701 300.532,139.535 300.426,150.616 300.496 L 167.268 300.600 167.315 317.200 L 167.361 333.800 167.581 317.885 C 167.749 305.705,167.918 301.897,168.304 301.659 C 168.681 301.426,168.577 301.130,167.895 300.489 C 166.667 299.336,132.867 299.156,131.918 300.298 M187.829 327.829 C 187.280 328.377,187.200 330.297,187.200 342.829 L 187.200 357.200 149.900 357.228 C 129.385 357.244,112.240 357.411,111.800 357.600 C 111.346 357.795,127.437 357.956,149.020 357.972 C 178.089 357.993,187.153 357.887,187.520 357.520 C 187.875 357.165,188.000 353.380,188.000 342.969 C 188.000 327.898,188.043 327.579,189.981 328.194 C 190.935 328.497,191.107 327.803,190.167 327.443 C 189.147 327.051,188.499 327.158,187.829 327.829 " stroke="none" fill="#345084" fill-rule="evenodd"></path><path id="path4" d="M212.278 42.500 C 211.671 42.950,211.594 44.418,211.502 57.200 L 211.400 71.400 210.300 71.384 C 208.967 71.365,208.882 71.735,210.100 72.260 C 211.296 72.776,212.391 72.500,212.440 71.671 C 212.462 71.302,212.463 64.655,212.442 56.900 L 212.404 42.800 249.802 42.800 L 287.200 42.800 287.200 82.200 L 287.200 121.600 250.000 121.600 C 220.530 121.600,212.791 121.496,212.756 121.100 C 212.732 120.825,212.661 114.238,212.597 106.461 C 212.532 98.424,212.322 92.162,212.110 91.950 C 211.606 91.446,217.072 91.480,146.927 91.543 C 76.970 91.606,82.966 91.373,83.800 94.000 C 84.173 95.176,84.763 94.974,84.675 93.700 L 84.600 92.600 148.000 92.600 L 211.400 92.600 211.502 107.000 C 211.594 119.970,211.671 121.450,212.278 121.900 C 213.161 122.554,286.409 122.637,287.626 121.986 C 288.842 121.335,288.842 43.065,287.626 42.414 C 286.409 41.763,213.161 41.846,212.278 42.500 M230.400 63.492 C 229.260 63.925,229.212 64.670,229.206 82.024 C 229.199 101.183,229.200 101.186,231.437 100.626 C 232.077 100.466,239.980 100.305,249.000 100.267 C 258.020 100.230,265.622 100.056,265.894 99.880 C 266.529 99.469,266.388 97.681,265.700 97.417 C 265.328 97.274,265.206 97.537,265.286 98.307 L 265.400 99.400 248.109 99.504 L 230.817 99.608 230.598 98.704 C 230.477 98.207,230.428 90.330,230.489 81.200 L 230.600 64.600 231.700 64.675 C 232.976 64.763,233.145 64.213,232.026 63.614 C 231.601 63.386,231.196 63.214,231.126 63.232 C 231.057 63.249,230.730 63.366,230.400 63.492 M66.499 160.067 C 66.445 209.054,66.509 249.419,66.643 249.767 C 66.863 250.341,73.544 250.400,138.255 250.400 C 205.860 250.400,209.639 250.437,209.886 251.100 C 210.030 251.485,210.474 252.035,210.874 252.323 C 211.553 252.811,211.600 253.802,211.600 267.580 C 211.600 280.647,211.672 282.342,212.233 282.557 C 213.544 283.060,287.411 282.829,287.920 282.320 C 288.873 281.367,288.584 202.927,287.626 202.414 C 286.552 201.839,213.448 201.839,212.374 202.414 C 211.633 202.810,211.600 203.385,211.600 215.827 C 211.600 229.640,211.434 231.018,209.660 231.968 C 209.092 232.272,190.507 232.400,146.875 232.400 C 79.153 232.400,83.573 232.557,84.173 230.166 C 84.362 229.413,84.292 229.169,83.924 229.292 C 83.275 229.508,83.096 231.593,83.667 232.280 C 84.017 232.703,95.950 232.800,147.259 232.800 L 210.420 232.800 210.800 231.800 C 211.009 231.250,211.465 230.800,211.814 230.800 C 212.162 230.800,212.336 230.620,212.200 230.400 C 212.064 230.180,212.188 229.997,212.476 229.994 C 212.857 229.989,212.836 229.882,212.400 229.600 C 211.989 229.335,211.960 229.210,212.307 229.206 C 212.710 229.201,212.765 226.512,212.576 216.000 L 212.339 202.800 249.769 202.800 L 287.200 202.800 287.261 241.100 C 287.324 281.011,287.324 280.568,287.248 281.700 C 287.203 282.361,285.144 282.400,250.000 282.400 L 212.800 282.400 212.756 281.500 C 212.732 281.005,212.735 274.660,212.762 267.400 C 212.815 253.148,212.740 252.162,211.572 251.791 C 211.147 251.656,210.800 251.209,210.800 250.797 C 210.800 250.384,210.575 249.902,210.300 249.724 C 209.841 249.427,193.100 249.354,99.501 249.240 L 66.802 249.200 66.700 160.100 L 66.598 71.000 66.499 160.067 M149.900 117.499 L 187.200 117.604 187.200 132.828 C 187.200 148.379,187.268 149.138,188.765 150.287 C 189.259 150.666,204.983 150.777,259.300 150.787 L 329.200 150.800 329.246 238.900 C 329.271 287.355,329.263 327.299,329.227 327.665 C 329.191 328.030,329.350 328.446,329.581 328.588 C 330.165 328.949,330.170 151.466,329.586 150.374 C 329.179 149.613,327.971 149.600,259.686 149.591 C 191.789 149.582,190.177 149.565,189.200 148.814 L 188.200 148.046 188.000 132.723 L 187.800 117.400 150.200 117.397 L 112.600 117.394 149.900 117.499 M132.049 140.148 C 130.899 141.372,130.693 175.036,131.829 176.171 C 132.666 177.009,133.882 176.968,134.354 176.087 C 134.676 175.484,134.570 175.376,133.668 175.387 L 132.600 175.400 132.485 159.400 C 132.356 141.504,132.384 141.118,133.825 140.461 C 135.166 139.851,166.494 139.808,167.629 140.415 C 168.350 140.802,168.362 140.913,167.798 142.004 C 167.279 143.007,167.207 145.520,167.300 159.289 L 167.409 175.400 167.505 159.087 C 167.587 145.016,167.682 142.743,168.200 142.545 C 168.947 142.258,168.990 140.256,168.263 139.652 C 167.885 139.339,162.554 139.212,150.312 139.225 L 132.898 139.244 132.049 140.148 M310.294 167.440 C 310.159 167.574,283.278 167.673,250.558 167.660 C 217.838 167.646,190.872 167.762,190.634 167.917 C 190.395 168.073,217.517 168.290,250.905 168.400 L 311.609 168.600 311.613 237.959 C 311.614 276.106,311.553 307.380,311.477 307.457 C 311.232 307.702,188.779 307.634,188.382 307.389 C 188.151 307.246,188.000 301.506,188.000 292.856 C 188.000 282.270,187.875 278.435,187.520 278.080 C 187.153 277.713,177.932 277.611,148.220 277.646 C 119.837 277.680,109.830 277.807,111.000 278.120 C 112.065 278.405,125.066 278.592,149.886 278.678 L 187.172 278.808 187.286 293.419 C 187.383 305.867,187.489 308.091,188.000 308.444 C 188.653 308.894,311.901 308.633,312.353 308.180 C 312.724 307.809,312.857 170.931,312.488 169.507 C 312.173 168.290,310.767 166.966,310.294 167.440 M188.240 169.070 L 187.200 170.192 187.200 183.696 L 187.200 197.200 150.100 197.240 C 129.695 197.262,112.550 197.424,112.000 197.600 C 111.450 197.776,128.235 197.938,149.300 197.960 C 170.365 197.982,187.637 197.955,187.682 197.900 C 187.728 197.845,187.863 191.440,187.982 183.667 C 188.188 170.311,188.242 169.504,188.971 168.971 C 189.395 168.662,189.638 168.305,189.511 168.178 C 189.385 168.051,188.813 168.453,188.240 169.070 M229.979 224.021 C 229.200 224.800,229.178 225.316,229.213 241.684 C 229.249 258.263,229.351 259.687,230.560 260.494 C 231.269 260.967,265.133 260.864,266.026 260.386 C 267.040 259.843,266.679 256.546,265.474 255.341 C 265.031 254.898,265.160 256.432,265.688 257.893 C 266.096 259.021,266.080 259.305,265.588 259.616 C 264.542 260.277,232.296 260.104,231.376 259.432 C 230.629 258.886,230.600 258.230,230.600 241.732 L 230.600 224.600 231.705 224.616 C 232.985 224.635,232.965 224.027,231.670 223.548 C 231.010 223.304,230.575 223.425,229.979 224.021 M265.200 228.000 C 265.200 229.796,265.348 230.756,265.600 230.600 C 265.820 230.464,266.000 229.294,266.000 228.000 C 266.000 226.706,265.820 225.536,265.600 225.400 C 265.348 225.244,265.200 226.204,265.200 228.000 M265.200 243.000 C 265.200 244.130,265.355 244.751,265.600 244.600 C 265.820 244.464,266.000 243.744,266.000 243.000 C 266.000 242.256,265.820 241.536,265.600 241.400 C 265.355 241.249,265.200 241.870,265.200 243.000 M131.918 300.298 C 131.185 301.181,130.934 334.556,131.651 335.895 C 132.176 336.876,133.546 337.094,134.320 336.320 C 135.051 335.589,134.905 335.367,133.700 335.384 L 132.600 335.400 132.496 318.316 C 132.394 301.687,132.412 301.222,133.178 300.812 C 133.701 300.532,139.535 300.426,150.616 300.496 L 167.268 300.600 167.315 317.200 L 167.361 333.800 167.581 317.885 C 167.749 305.705,167.918 301.897,168.304 301.659 C 168.681 301.426,168.577 301.130,167.895 300.489 C 166.667 299.336,132.867 299.156,131.918 300.298 M187.829 327.829 C 187.280 328.377,187.200 330.297,187.200 342.829 L 187.200 357.200 149.900 357.228 C 129.385 357.244,112.240 357.411,111.800 357.600 C 111.346 357.795,127.437 357.956,149.020 357.972 C 178.089 357.993,187.153 357.887,187.520 357.520 C 187.875 357.165,188.000 353.380,188.000 342.969 C 188.000 327.898,188.043 327.579,189.981 328.194 C 190.935 328.497,191.107 327.803,190.167 327.443 C 189.147 327.051,188.499 327.158,187.829 327.829 " stroke="none" fill="#345084" fill-rule="evenodd"></path></g></svg>